<?xml version="1.0" standalone="no"?>
<!DOCTYPE svg PUBLIC "-//W3C//DTD SVG 20010904//EN"
 "http://www.w3.org/TR/2001/REC-SVG-20010904/DTD/svg10.dtd">
<svg version="1.0" xmlns="http://www.w3.org/2000/svg"
 width="50.000000pt" height="50.000000pt" viewBox="0 0 50.000000 50.000000"
 preserveAspectRatio="xMidYMid meet">

<g transform="translate(0.000000,50.000000) scale(0.100000,-0.100000)"
fill="#000000" stroke="none">
<path d="M62 458 c2 -25 8 -34 26 -36 19 -3 22 -9 22 -51 0 -52 24 -95 61
-106 19 -6 17 -10 -20 -44 -38 -35 -41 -42 -41 -89 0 -45 -3 -51 -22 -54 -18
-2 -24 -11 -26 -36 l-3 -32 191 0 191 0 -3 32 c-2 25 -8 34 -24 36 -18 3 -22
11 -26 59 -4 49 -9 60 -39 85 l-33 28 33 28 c30 25 35 36 39 85 4 48 8 56 26
59 16 2 22 11 24 36 l3 32 -191 0 -191 0 3 -32z m308 -83 c0 -48 -14 -69 -70
-107 l-25 -17 25 -17 c57 -41 70 -62 70 -109 l0 -45 -120 0 -120 0 0 45 c0 48
13 68 70 108 l25 17 -25 18 c-57 39 -70 59 -70 107 l0 45 120 0 120 0 0 -45z"/>
<path d="M160 354 c0 -24 65 -84 90 -84 25 0 90 60 90 84 0 13 -14 16 -90 16
-76 0 -90 -3 -90 -16z"/>
</g>
</svg>
